<svg width="76" height="76" viewBox="0 0 76 76" fill="none" xmlns="http://www.w3.org/2000/svg">
<g filter="url(#filter0_d_360_4923)">
<circle cx="38" cy="35" r="23" fill="white"/>
</g>
<g clip-path="url(#clip0_360_4923)">
<path d="M34.2461 34.25C35.9003 34.25 37.2461 33.1565 37.2461 31.8125C37.2461 31.713 37.2066 31.6176 37.1363 31.5473C37.0659 31.477 36.9706 31.4375 36.8711 31.4375C36.7716 31.4375 36.6763 31.477 36.6059 31.5473C36.5356 31.6176 36.4961 31.713 36.4961 31.8125C36.4961 32.6471 35.6838 33.3418 34.6211 33.4761V32.2859C34.6608 32.2661 34.6988 32.2433 34.7349 32.2175L35.3713 31.7634C35.4881 31.6786 35.583 31.5672 35.6482 31.4385C35.7134 31.3097 35.7469 31.1673 35.746 31.023C35.746 30.5279 35.3587 30.1251 34.8825 30.1251H33.6096C33.1335 30.1251 32.7461 30.5279 32.7461 31.023C32.7452 31.1673 32.7788 31.3097 32.8439 31.4385C32.9091 31.5672 33.004 31.6786 33.1208 31.7634L33.7572 32.2175C33.7933 32.2433 33.8314 32.2662 33.8711 32.2859V33.4761C32.8084 33.3418 31.9961 32.6471 31.9961 31.8125C31.9961 31.713 31.9566 31.6176 31.8863 31.5473C31.8159 31.477 31.7205 31.4375 31.6211 31.4375C31.5216 31.4375 31.4263 31.477 31.3559 31.5473C31.2856 31.6176 31.2461 31.713 31.2461 31.8125C31.2461 33.1565 32.5919 34.25 34.2461 34.25ZM33.5566 31.1528C33.5371 31.1373 33.5215 31.1175 33.511 31.095C33.5005 31.0724 33.4954 31.0477 33.4962 31.0229C33.4962 30.9427 33.5482 30.875 33.6097 30.875H34.8827C34.9442 30.875 34.9962 30.9427 34.9962 31.0229C34.9969 31.0477 34.9918 31.0724 34.9814 31.095C34.9709 31.1175 34.9553 31.1373 34.9358 31.1528L34.2993 31.6069C34.2841 31.6186 34.2654 31.625 34.2462 31.625C34.2269 31.625 34.2082 31.6186 34.193 31.6069L33.5566 31.1528Z" fill="#31BEF4"/>
<path d="M36.4961 30.125C36.7032 30.125 36.8711 29.9571 36.8711 29.75C36.8711 29.5429 36.7032 29.375 36.4961 29.375C36.289 29.375 36.1211 29.5429 36.1211 29.75C36.1211 29.9571 36.289 30.125 36.4961 30.125Z" fill="#31BEF4"/>
<path d="M31.9961 30.125C32.2032 30.125 32.3711 29.9571 32.3711 29.75C32.3711 29.5429 32.2032 29.375 31.9961 29.375C31.789 29.375 31.6211 29.5429 31.6211 29.75C31.6211 29.9571 31.789 30.125 31.9961 30.125Z" fill="#31BEF4"/>
<path d="M44 37.625C44.2967 37.625 44.5867 37.537 44.8334 37.3722C45.08 37.2074 45.2723 36.9731 45.3858 36.699C45.4994 36.4249 45.5291 36.1233 45.4712 35.8324C45.4133 35.5414 45.2705 35.2741 45.0607 35.0643C44.8509 34.8546 44.5836 34.7117 44.2926 34.6538C44.0017 34.5959 43.7001 34.6256 43.426 34.7392C43.1519 34.8527 42.9176 35.045 42.7528 35.2916C42.588 35.5383 42.5 35.8283 42.5 36.125C42.5004 36.5227 42.6586 36.904 42.9398 37.1852C43.221 37.4664 43.6023 37.6246 44 37.625ZM44 35.375C44.1483 35.375 44.2933 35.419 44.4167 35.5014C44.54 35.5838 44.6362 35.7009 44.6929 35.838C44.7497 35.975 44.7645 36.1258 44.7356 36.2713C44.7067 36.4168 44.6352 36.5505 44.5303 36.6553C44.4255 36.7602 44.2918 36.8317 44.1463 36.8606C44.0008 36.8895 43.85 36.8747 43.713 36.8179C43.5759 36.7612 43.4588 36.665 43.3764 36.5417C43.294 36.4184 43.25 36.2733 43.25 36.125C43.2502 35.9262 43.3293 35.7355 43.4699 35.5949C43.6105 35.4543 43.8012 35.3752 44 35.375Z" fill="#31BEF4"/>
<path d="M49.25 38.375H47V33.5C47 33.4231 46.9763 33.348 46.932 33.2851L44.307 29.5351C44.2724 29.4857 44.2264 29.4453 44.173 29.4175C44.1195 29.3897 44.0601 29.3751 43.9998 29.3751C43.9395 29.3751 43.8801 29.3897 43.8266 29.4175C43.7731 29.4453 43.7271 29.4857 43.6926 29.5351L41.0676 33.2851C41.0234 33.348 40.9998 33.4231 41 33.5V35.8467C40.4864 35.1563 39.8013 34.5835 38.9554 34.1417C39.7906 33.1599 40.2457 31.8843 40.2457 30.5C40.2477 29.8883 40.1549 29.2801 39.9707 28.6968C40.336 28.504 40.6506 28.2278 40.889 27.8905C41.1274 27.5532 41.2828 27.1644 41.3426 26.7558C41.4025 26.3471 41.3651 25.9301 41.2334 25.5387C41.1018 25.1472 40.8796 24.7923 40.585 24.5029C40.2904 24.2134 39.9316 23.9976 39.5379 23.8729C39.1442 23.7482 38.7266 23.7181 38.319 23.7852C37.9115 23.8523 37.5256 24.0146 37.1926 24.2589C36.8596 24.5032 36.5889 24.8227 36.4026 25.1913C35.7041 24.976 34.9766 24.8694 34.2457 24.875C33.5149 24.8694 32.7875 24.9761 32.089 25.1913C31.9027 24.8227 31.6321 24.5033 31.2991 24.2589C30.9661 24.0146 30.5801 23.8523 30.1726 23.7852C29.7651 23.7182 29.3475 23.7482 28.9537 23.8729C28.56 23.9976 28.2012 24.2134 27.9066 24.5029C27.612 24.7923 27.3898 25.1472 27.2582 25.5386C27.1265 25.9301 27.0891 26.3471 27.149 26.7558C27.2088 27.1644 27.3642 27.5532 27.6026 27.8905C27.841 28.2277 28.1556 28.504 28.5208 28.6968C28.3366 29.2801 28.2438 29.8883 28.2457 30.5C28.2457 31.8843 28.7011 33.16 29.5362 34.1417C27.7105 35.0952 26.634 36.6591 26.4132 38.6951C26.4127 38.6997 26.4123 38.7044 26.4119 38.7091L26.3759 39.2239C26.3747 39.2408 26.3747 39.2578 26.3759 39.2747C26.4059 39.7137 26.5636 40.1343 26.8297 40.4846C27.0958 40.835 27.4586 41.0999 27.8734 41.2467C27.6259 41.7537 27.4982 42.3108 27.5 42.875C27.5 44.7359 28.8457 46.25 30.5 46.25C31.3906 46.25 32.1913 45.8107 32.7413 45.1151C33.204 45.3676 33.7228 45.5 34.25 45.5C34.7771 45.5 35.2959 45.3676 35.7586 45.1151C36.3086 45.8107 37.1093 46.25 38 46.25C39.1754 46.25 40.1945 45.4852 40.6863 44.375H49.25C49.3494 44.375 49.4448 44.3355 49.5151 44.2652C49.5854 44.1948 49.625 44.0995 49.625 44V38.75C49.625 38.6505 49.5854 38.5552 49.5151 38.4848C49.4448 38.4145 49.3494 38.375 49.25 38.375ZM44 30.4039L45.9047 33.125H42.0952L44 30.4039ZM41.75 33.875H46.25V38.375H42.0351C41.976 37.9918 41.8805 37.6151 41.75 37.25V33.875ZM40.6253 41.244C40.9786 41.1172 41.2949 40.9045 41.5456 40.625H42.125V42.125H40.9243C40.863 41.8197 40.7625 41.5236 40.6253 41.244ZM41.3318 38.769L41.3656 39.2496C41.3386 39.5671 41.2115 39.8677 41.0025 40.1082C40.7936 40.3486 40.5136 40.5165 40.2031 40.5875C39.733 40.0149 39.0893 39.626 38.367 39.5263C38.2987 38.0011 37.7846 36.5937 36.9446 35.6084C37.4742 35.3846 37.9653 35.079 38.3999 34.7026C40.1177 35.5254 41.1298 36.9262 41.3318 38.7687V38.769ZM38.7457 24.5C39.1578 24.4999 39.5584 24.6355 39.8856 24.8858C40.2129 25.1362 40.4485 25.4873 40.5562 25.885C40.6639 26.2828 40.6375 26.7049 40.4813 27.0861C40.325 27.4674 40.0475 27.7865 39.6917 27.9942C39.4299 27.4457 39.0746 26.9469 38.6417 26.5203C38.195 26.0822 37.6758 25.7246 37.1071 25.4635C37.2699 25.1717 37.5076 24.9286 37.7956 24.7593C38.0837 24.5899 38.4116 24.5004 38.7457 24.5ZM27.8707 26.375C27.8706 25.9596 28.0085 25.5559 28.2626 25.2273C28.5168 24.8988 28.8728 24.6639 29.2749 24.5596C29.677 24.4553 30.1024 24.4874 30.4842 24.651C30.866 24.8146 31.1827 25.1004 31.3845 25.4635C30.8159 25.7246 30.2967 26.0821 29.85 26.5203C29.4171 26.9469 29.0617 27.4457 28.8 27.9942C28.5174 27.8287 28.2831 27.5922 28.1201 27.3082C27.9571 27.0241 27.8711 26.7025 27.8707 26.375ZM30.3759 27.0551C31.3273 26.1195 32.6656 25.625 34.2457 25.625C35.8259 25.625 37.1642 26.1195 38.1156 27.0551C39.0056 27.9303 39.4957 29.1537 39.4957 30.5C39.4957 31.8463 39.0056 33.0697 38.1156 33.9449C37.1642 34.8805 35.826 35.375 34.2457 35.375C32.6654 35.375 31.3273 34.8805 30.3759 33.9449C29.4859 33.0697 28.9957 31.8463 28.9957 30.5C28.9957 29.1537 29.4859 27.9303 30.3759 27.0551ZM27.1259 39.2495L27.1596 38.7689C27.3617 36.9261 28.3737 35.5254 30.0915 34.7024C30.528 35.0805 31.0215 35.3871 31.5538 35.6112C30.7162 36.5967 30.2016 38.0082 30.1329 39.5262C29.4099 39.6259 28.7656 40.0156 28.2955 40.5889C27.9834 40.5191 27.7017 40.3516 27.4914 40.1107C27.2811 39.8699 27.153 39.5682 27.1259 39.2495ZM30.5 45.5C29.2593 45.5 28.25 44.3225 28.25 42.875C28.25 41.4275 29.2593 40.25 30.5 40.25C31.7406 40.25 32.75 41.4275 32.75 42.875C32.75 44.3225 31.7406 45.5 30.5 45.5ZM34.25 44.75C33.8635 44.7487 33.4829 44.655 33.14 44.4767C33.3787 43.9766 33.5017 43.4292 33.5 42.875C33.5 41.1604 32.3573 39.7414 30.8838 39.5286C30.9559 38.0661 31.4813 36.7292 32.325 35.8782C32.9513 36.0458 33.5973 36.1288 34.2457 36.125C34.8963 36.1289 35.5445 36.0454 36.1728 35.8766C37.0192 36.7274 37.5446 38.059 37.6163 39.5287C36.1427 39.7413 35 41.1603 35 42.875C34.9982 43.4292 35.1212 43.9766 35.36 44.4767C35.017 44.655 34.6365 44.7487 34.25 44.75ZM38 45.5C36.7593 45.5 35.75 44.3225 35.75 42.875C35.75 41.4275 36.7593 40.25 38 40.25C39.2406 40.25 40.25 41.4275 40.25 42.875C40.25 44.3225 39.2406 45.5 38 45.5ZM41 42.875H42.5C42.5994 42.875 42.6948 42.8355 42.7651 42.7652C42.8354 42.6948 42.875 42.5995 42.875 42.5V40.25C42.875 40.1505 42.8354 40.0552 42.7651 39.9848C42.6948 39.9145 42.5994 39.875 42.5 39.875H41.9917C42.0604 39.6816 42.1022 39.4796 42.1157 39.2747C42.1169 39.2578 42.1169 39.2408 42.1157 39.2239L42.1088 39.125H43.625V43.625H40.9243C40.9745 43.3782 40.9999 43.1269 41 42.875ZM48.875 43.625H44.375V39.125H48.875V43.625Z" fill="#31BEF4"/>
<path d="M45.5 42.8751H47.75C47.8139 42.8751 47.8768 42.8588 47.9326 42.8276C47.9884 42.7965 48.0354 42.7516 48.069 42.6972C48.1026 42.6429 48.1217 42.5808 48.1246 42.5169C48.1275 42.4531 48.114 42.3895 48.0854 42.3324L46.9604 40.0824C46.9292 40.0201 46.8814 39.9677 46.8221 39.9311C46.7629 39.8945 46.6946 39.8751 46.625 39.8751C46.5554 39.8751 46.4871 39.8945 46.4279 39.9311C46.3686 39.9677 46.3207 40.0201 46.2896 40.0824L45.1646 42.3324C45.136 42.3895 45.1225 42.4531 45.1254 42.5169C45.1282 42.5808 45.1474 42.6429 45.181 42.6972C45.2146 42.7516 45.2615 42.7965 45.3174 42.8276C45.3732 42.8588 45.4361 42.8751 45.5 42.8751ZM46.625 41.0886L47.1432 42.1251H46.1067L46.625 41.0886Z" fill="#31BEF4"/>
</g>
<defs>
<filter id="filter0_d_360_4923" x="0" y="0" width="76" height="76" filterUnits="userSpaceOnUse" color-interpolation-filters="sRGB">
<feFlood flood-opacity="0" result="BackgroundImageFix"/>
<feColorMatrix in="SourceAlpha" type="matrix" values="0 0 0 0 0 0 0 0 0 0 0 0 0 0 0 0 0 0 127 0" result="hardAlpha"/>
<feOffset dy="3"/>
<feGaussianBlur stdDeviation="7.5"/>
<feComposite in2="hardAlpha" operator="out"/>
<feColorMatrix type="matrix" values="0 0 0 0 0.129412 0 0 0 0 0.176471 0 0 0 0 0.333333 0 0 0 0.15 0"/>
<feBlend mode="normal" in2="BackgroundImageFix" result="effect1_dropShadow_360_4923"/>
<feBlend mode="normal" in="SourceGraphic" in2="effect1_dropShadow_360_4923" result="shape"/>
</filter>
<clipPath id="clip0_360_4923">
<rect width="24" height="24" fill="white" transform="translate(26 23)"/>
</clipPath>
</defs>
</svg>
